{
	"asset":{
		"generator":"Khronos glTF Blender I/O v5.1.19",
		"version":"2.0"
	},
	"scene":0,
	"scenes":[
		{
			"name":"Scene",
			"nodes":[
				0
			]
		}
	],
	"nodes":[
		{
			"mesh":0,
			"name":"Mannequin"
		}
	],
	"materials":[
		{
			"doubleSided":true,
			"name":"M_Main",
			"pbrMetallicRoughness":{
				"baseColorFactor":[
					0.19806936383247375,
					0.21223078668117523,
					0.22696591913700104,
					1
				],
				"metallicFactor":0,
				"roughnessFactor":0.5
			}
		},
		{
			"doubleSided":true,
			"name":"M_Joints",
			"pbrMetallicRoughness":{
				"baseColorFactor":[
					0.19806936383247375,
					0.21223078668117523,
					0.22696591913700104,
					1
				],
				"metallicFactor":0,
				"roughnessFactor":0.5
			}
		}
	],
	"meshes":[
		{
			"name":"Mannequin.001",
			"primitives":[
				{
					"attributes":{
						"POSITION":0,
						"NORMAL":1,
						"TEXCOORD_0":2,
						"TEXCOORD_1":3
					},
					"indices":4,
					"material":0
				},
				{
					"attributes":{
						"POSITION":5,
						"NORMAL":6,
						"TEXCOORD_0":7,
						"TEXCOORD_1":8
					},
					"indices":9,
					"material":1
				}
			]
		}
	],
	"accessors":[
		{
			"bufferView":0,
			"componentType":5126,
			"count":3389,
			"max":[
				0.9722269773483276,
				1.8291780948638916,
				0.1641540378332138
			],
			"min":[
				-0.9722269773483276,
				0.00046144126099534333,
				-0.2054443657398224
			],
			"type":"VEC3"
		},
		{
			"bufferView":1,
			"componentType":5126,
			"count":3389,
			"type":"VEC3"
		},
		{
			"bufferView":2,
			"componentType":5126,
			"count":3389,
			"type":"VEC2"
		},
		{
			"bufferView":3,
			"componentType":5126,
			"count":3389,
			"type":"VEC2"
		},
		{
			"bufferView":4,
			"componentType":5123,
			"count":17196,
			"type":"SCALAR"
		},
		{
			"bufferView":5,
			"componentType":5126,
			"count":5157,
			"max":[
				0.9503881931304932,
				1.6652592420578003,
				0.12136223167181015
			],
			"min":[
				-0.9503881931304932,
				0.09957659244537354,
				-0.116485595703125
			],
			"type":"VEC3"
		},
		{
			"bufferView":6,
			"componentType":5126,
			"count":5157,
			"type":"VEC3"
		},
		{
			"bufferView":7,
			"componentType":5126,
			"count":5157,
			"type":"VEC2"
		},
		{
			"bufferView":8,
			"componentType":5126,
			"count":5157,
			"type":"VEC2"
		},
		{
			"bufferView":9,
			"componentType":5123,
			"count":24036,
			"type":"SCALAR"
		}
	],
	"bufferViews":[
		{
			"buffer":0,
			"byteLength":40668,
			"byteOffset":0,
			"target":34962
		},
		{
			"buffer":0,
			"byteLength":40668,
			"byteOffset":40668,
			"target":34962
		},
		{
			"buffer":0,
			"byteLength":27112,
			"byteOffset":81336,
			"target":34962
		},
		{
			"buffer":0,
			"byteLength":27112,
			"byteOffset":108448,
			"target":34962
		},
		{
			"buffer":0,
			"byteLength":34392,
			"byteOffset":135560,
			"target":34963
		},
		{
			"buffer":0,
			"byteLength":61884,
			"byteOffset":169952,
			"target":34962
		},
		{
			"buffer":0,
			"byteLength":61884,
			"byteOffset":231836,
			"target":34962
		},
		{
			"buffer":0,
			"byteLength":41256,
			"byteOffset":293720,
			"target":34962
		},
		{
			"buffer":0,
			"byteLength":41256,
			"byteOffset":334976,
			"target":34962
		},
		{
			"buffer":0,
			"byteLength":48072,
			"byteOffset":376232,
			"target":34963
		}
	],
	"buffers":[
		{
			"byteLength":424304,
			"uri":"Player.bin"
		}
	]
}
