{
	"asset":{
		"generator":"Khronos glTF Blender I/O v5.1.19",
		"version":"2.0"
	},
	"scene":0,
	"scenes":[
		{
			"name":"Scene",
			"nodes":[
				0,
				1
			]
		}
	],
	"nodes":[
		{
			"name":"\u30c6\u30ad\u30b9\u30c8"
		},
		{
			"mesh":0,
			"name":"\u30c6\u30ad\u30b9\u30c8.001",
			"rotation":[
				0.7071068286895752,
				0,
				0,
				0.7071068286895752
			],
			"translation":[
				-0.49395930767059326,
				0.11936285346746445,
				0
			]
		}
	],
	"meshes":[
		{
			"name":"\u30c6\u30ad\u30b9\u30c8.001",
			"primitives":[
				{
					"attributes":{
						"POSITION":0,
						"NORMAL":1,
						"TEXCOORD_0":2
					},
					"indices":3
				}
			]
		}
	],
	"accessors":[
		{
			"bufferView":0,
			"componentType":5126,
			"count":566,
			"max":[
				1.0195857286453247,
				0.09999999403953552,
				0.11936094611883163
			],
			"min":[
				-0.005653031170368195,
				-0.09999999403953552,
				-0.859000027179718
			],
			"type":"VEC3"
		},
		{
			"bufferView":1,
			"componentType":5126,
			"count":566,
			"type":"VEC3"
		},
		{
			"bufferView":2,
			"componentType":5126,
			"count":566,
			"type":"VEC2"
		},
		{
			"bufferView":3,
			"componentType":5123,
			"count":1644,
			"type":"SCALAR"
		}
	],
	"bufferViews":[
		{
			"buffer":0,
			"byteLength":6792,
			"byteOffset":0,
			"target":34962
		},
		{
			"buffer":0,
			"byteLength":6792,
			"byteOffset":6792,
			"target":34962
		},
		{
			"buffer":0,
			"byteLength":4528,
			"byteOffset":13584,
			"target":34962
		},
		{
			"buffer":0,
			"byteLength":3288,
			"byteOffset":18112,
			"target":34963
		}
	],
	"buffers":[
		{
			"byteLength":21400,
			"uri":"Hi.bin"
		}
	]
}
