{
	"asset":{
		"generator":"Khronos glTF Blender I/O v5.1.19",
		"version":"2.0"
	},
	"scene":0,
	"scenes":[
		{
			"name":"Scene",
			"nodes":[
				0
			]
		}
	],
	"nodes":[
		{
			"mesh":0,
			"name":"\u30c6\u30ad\u30b9\u30c8",
			"rotation":[
				0.7071068286895752,
				0,
				0,
				0.7071068286895752
			],
			"translation":[
				-0.49605435132980347,
				0.11000057309865952,
				0
			]
		}
	],
	"meshes":[
		{
			"name":"\u30c6\u30ad\u30b9\u30c8",
			"primitives":[
				{
					"attributes":{
						"POSITION":0,
						"NORMAL":1,
						"TEXCOORD_0":2
					},
					"indices":3
				}
			]
		}
	],
	"accessors":[
		{
			"bufferView":0,
			"componentType":5126,
			"count":342,
			"max":[
				1.0208969116210938,
				0.10000000149011612,
				0.10999997705221176
			],
			"min":[
				-0.023062098771333694,
				-0.10000000149011612,
				-0.8690000176429749
			],
			"type":"VEC3"
		},
		{
			"bufferView":1,
			"componentType":5126,
			"count":342,
			"type":"VEC3"
		},
		{
			"bufferView":2,
			"componentType":5126,
			"count":342,
			"type":"VEC2"
		},
		{
			"bufferView":3,
			"componentType":5123,
			"count":1032,
			"type":"SCALAR"
		}
	],
	"bufferViews":[
		{
			"buffer":0,
			"byteLength":4104,
			"byteOffset":0,
			"target":34962
		},
		{
			"buffer":0,
			"byteLength":4104,
			"byteOffset":4104,
			"target":34962
		},
		{
			"buffer":0,
			"byteLength":2736,
			"byteOffset":8208,
			"target":34962
		},
		{
			"buffer":0,
			"byteLength":2064,
			"byteOffset":10944,
			"target":34963
		}
	],
	"buffers":[
		{
			"byteLength":13008,
			"uri":"Ki.bin"
		}
	]
}
