{
	"asset":{
		"generator":"Khronos glTF Blender I/O v5.1.19",
		"version":"2.0"
	},
	"scene":0,
	"scenes":[
		{
			"name":"Scene",
			"nodes":[
				0
			]
		}
	],
	"nodes":[
		{
			"mesh":0,
			"name":"\u30c6\u30ad\u30b9\u30c8",
			"rotation":[
				0.7071068286895752,
				0,
				0,
				0.7071068286895752
			],
			"translation":[
				-0.5014355778694153,
				0.11178503930568695,
				0
			]
		}
	],
	"meshes":[
		{
			"name":"\u30c6\u30ad\u30b9\u30c8",
			"primitives":[
				{
					"attributes":{
						"POSITION":0,
						"NORMAL":1,
						"TEXCOORD_0":2
					},
					"indices":3
				}
			]
		}
	],
	"accessors":[
		{
			"bufferView":0,
			"componentType":5126,
			"count":724,
			"max":[
				1.0271720886230469,
				0.10000000149011612,
				0.11106230318546295
			],
			"min":[
				-0.014198899269104004,
				-0.10000000149011612,
				-0.8680000305175781
			],
			"type":"VEC3"
		},
		{
			"bufferView":1,
			"componentType":5126,
			"count":724,
			"type":"VEC3"
		},
		{
			"bufferView":2,
			"componentType":5126,
			"count":724,
			"type":"VEC2"
		},
		{
			"bufferView":3,
			"componentType":5123,
			"count":2262,
			"type":"SCALAR"
		}
	],
	"bufferViews":[
		{
			"buffer":0,
			"byteLength":8688,
			"byteOffset":0,
			"target":34962
		},
		{
			"buffer":0,
			"byteLength":8688,
			"byteOffset":8688,
			"target":34962
		},
		{
			"buffer":0,
			"byteLength":5792,
			"byteOffset":17376,
			"target":34962
		},
		{
			"buffer":0,
			"byteLength":4524,
			"byteOffset":23168,
			"target":34963
		}
	],
	"buffers":[
		{
			"byteLength":27692,
			"uri":"Mizu.bin"
		}
	]
}
