{
	"asset":{
		"generator":"Khronos glTF Blender I/O v5.1.19",
		"version":"2.0"
	},
	"scene":0,
	"scenes":[
		{
			"name":"Scene",
			"nodes":[
				0
			]
		}
	],
	"nodes":[
		{
			"mesh":0,
			"name":"\u30c6\u30ad\u30b9\u30c8",
			"rotation":[
				0.7071068286895752,
				0,
				0,
				0.7071068286895752
			],
			"translation":[
				-0.5107309222221375,
				0.12603038549423218,
				0
			]
		}
	],
	"meshes":[
		{
			"name":"\u30c6\u30ad\u30b9\u30c8",
			"primitives":[
				{
					"attributes":{
						"POSITION":0,
						"NORMAL":1,
						"TEXCOORD_0":2
					},
					"indices":3
				}
			]
		}
	],
	"accessors":[
		{
			"bufferView":0,
			"componentType":5126,
			"count":506,
			"max":[
				0.8510000109672546,
				0.10000000149011612,
				0.12602542340755463
			],
			"min":[
				-0.01899612508714199,
				-0.10000000149011612,
				-0.8170000314712524
			],
			"type":"VEC3"
		},
		{
			"bufferView":1,
			"componentType":5126,
			"count":506,
			"type":"VEC3"
		},
		{
			"bufferView":2,
			"componentType":5126,
			"count":506,
			"type":"VEC2"
		},
		{
			"bufferView":3,
			"componentType":5123,
			"count":1524,
			"type":"SCALAR"
		}
	],
	"bufferViews":[
		{
			"buffer":0,
			"byteLength":6072,
			"byteOffset":0,
			"target":34962
		},
		{
			"buffer":0,
			"byteLength":6072,
			"byteOffset":6072,
			"target":34962
		},
		{
			"buffer":0,
			"byteLength":4048,
			"byteOffset":12144,
			"target":34962
		},
		{
			"buffer":0,
			"byteLength":3048,
			"byteOffset":16192,
			"target":34963
		}
	],
	"buffers":[
		{
			"byteLength":19240,
			"uri":"Tsuki.bin"
		}
	]
}
